<svg version="1.1" xmlns="http://www.w3.org/2000/svg" xmlns:xlink="http://www.w3.org/1999/xlink" width="237.12246" height="179.5695" viewBox="0,0,237.12246,179.5695"><g transform="translate(-236.40061,-34.85386)"><g data-paper-data="{&quot;isPaintingLayer&quot;:true}" fill-rule="nonzero" stroke-linecap="butt" stroke-linejoin="miter" stroke-miterlimit="10" stroke-dasharray="" stroke-dashoffset="0" style="mix-blend-mode: normal"><path d="M237.64259,113.75339l182.06821,-72.0454l50.26423,65.90198l-187.09462,79.86428z" data-paper-data="{&quot;origPos&quot;:null}" fill="#f9f9f9" stroke="#000000" stroke-width="0.25"/><path d="M285.11437,212.60636c0,0 -6.1434,4.46794 -9.49435,-1.11698l-36.86044,-61.99255c0,0 -2.23397,-7.26038 -2.23397,-11.72831v-17.87172c0,0 1.11698,-7.26038 3.35094,-6.1434l40.21138,69.25292c0,0 2.23397,2.23397 1.11698,6.1434z" data-paper-data="{&quot;origPos&quot;:null}" fill="#d3d3d3" stroke="#000000" stroke-width="0.25"/><path d="M280.64643,212.60636v-25.13212c0,-1.11698 0,-2.23397 1.11698,-2.23397l188.7701,-79.86428l-5.02643,27.36608l-183.74368,80.98126c0,0 -1.11698,0 -1.11698,-1.11698z" data-paper-data="{&quot;origPos&quot;:null}" fill="#e5e5e5" stroke="#000000" stroke-width="0.25"/><path d="M422.50325,35.00608l50.82271,67.57747l-150.79268,61.99255l-44.67932,-70.36992z" data-paper-data="{&quot;origPos&quot;:null}" fill="#2d2d2d" stroke="#000000" stroke-width="0.25"/><path d="M322.5333,196.9686v-27.36608c0,0 1.11698,-2.23397 -1.11698,-6.1434l149.11722,-64.22651c0,0 2.23397,1.11698 2.23397,5.02643l-4.46794,26.24911z" data-paper-data="{&quot;origPos&quot;:null}" fill="#1e1e1e" stroke="#000000" stroke-width="0.25"/><g data-paper-data="{&quot;origPos&quot;:null}" fill="#ffffff" stroke="none" stroke-width="1"><path d="M328.11821,120.45528v0c1.11698,0 1.11698,-1.11698 1.11698,-1.11698c0,0 0,0 0,-1.11698c0,0 0,0 0,-1.11698v0c0,0 0,0 -1.11698,0c0,0 0,0 -1.11698,0h-1.11698h-1.11698h-1.11698c0,0 0,0 -1.11698,-1.11698c0,0 0,-1.11698 -1.11698,-1.11698v-1.11698v-1.11698l1.11698,-1.11698c0,0 1.11698,-1.11698 2.23397,-1.11698h1.11698h1.11698h1.11698c0,0 0,0 1.11698,0v2.23397h-1.11698h-1.11698c0,0 0,0 -1.11698,0v0c0,0 0,0 0,1.11698c0,0 0,0 0,1.11698v0v0c0,0 0,0 1.11698,0c0,0 0,0 1.11698,0h1.11698h1.11698c0,0 1.11698,0 1.11698,1.11698c0,0 0,1.11698 1.11698,1.11698c0,1.11698 0,1.11698 0,2.23397c0,1.11698 0,1.11698 0,1.11698l-1.11698,1.11698c0,0 -1.11698,1.11698 -2.23397,1.11698h-1.11698h-1.11698h-1.11698c0,0 0,0 -1.11698,0v-2.23397c0,0 0,0 1.11698,0c0,0 0,0 1.11698,0c-1.11698,0 0,0 1.11698,0c-1.11698,0 -1.11698,0 0,0z"/><path d="M341.52201,112.07791c0,2.23397 0,3.35094 0,4.46794c-1.11698,1.11698 -1.11698,2.23397 -3.35094,2.23397c-1.11698,0 -1.11698,0 -2.23397,0c-1.11698,0 -1.11698,0 -1.11698,0c0,0 -1.11698,0 -1.11698,-1.11698l-1.11698,-1.11698c0,-1.11698 0,-1.11698 0,-2.23397l-1.11698,-6.1434l2.23397,-1.11698l1.11698,7.26038v1.11698c0,0 0,0 0,1.11698v0c0,0 0,0 1.11698,0c0,0 0,0 1.11698,0c1.11698,0 1.11698,-1.11698 1.11698,-1.11698c0,0 0,-1.11698 0,-2.23397l-1.11698,-7.26038l2.23397,-1.11698z"/><path d="M352.13333,113.1949c-1.11698,-1.11698 -2.23397,-2.23397 -3.35094,-3.35094c-1.11698,-1.11698 -2.23397,-2.23397 -3.35094,-3.35094l1.11698,8.37737l-2.23397,1.11698l-2.23397,-12.84531l2.23397,-1.11698l1.11698,1.11698l1.11698,1.11698c0,0 1.11698,1.11698 2.23397,1.11698c1.11698,0 1.11698,1.11698 1.11698,1.11698l-1.11698,-7.26038l2.23397,-1.11698l2.23397,11.72831z"/><path d="M356.60126,110.96093l-2.23397,-11.72831l7.26038,-3.35094v2.23397l-4.46794,2.23397v2.23397l4.46794,-2.23397v2.23397l-4.46794,2.23397l1.11698,5.02643z"/><path d="M370.00506,105.37601c-1.11698,0 -1.11698,0 -2.23397,0c-1.11698,0 -1.11698,0 -2.23397,0c-1.11698,0 -1.11698,-1.11698 -1.11698,-1.11698c0,0 -1.11698,-1.11698 -1.11698,-2.23397c0,-1.11698 0,-2.23397 -1.11698,-2.23397c0,-1.11698 0,-2.23397 0,-3.35094c0,-1.11698 1.11698,-2.23397 1.11698,-2.23397c1.11698,-1.11698 1.11698,-1.11698 2.23397,-2.23397c1.11698,0 1.11698,0 2.23397,0c1.11698,0 1.11698,0 2.23397,0c1.11698,0 1.11698,1.11698 1.11698,1.11698c0,0 1.11698,1.11698 1.11698,2.23397c0,1.11698 0,2.23397 1.11698,2.23397c0,1.11698 0,2.23397 0,3.35094c0,1.11698 -1.11698,2.23397 -1.11698,2.23397c0,1.67547 -1.11698,2.23397 -2.23397,2.23397zM367.7711,95.88165c0,0 -1.11698,0 -1.11698,1.11698l-0.55849,1.11698c0,1.11698 0,1.11698 0,2.23397c0,1.11698 0,1.11698 0,2.23397c0,1.11698 1.11698,1.11698 1.11698,2.23397c0,0 1.11698,0 2.23397,0c0,0 1.11698,0 1.11698,-1.11698l1.11698,-1.11698c0,-1.11698 0,-1.11698 0,-2.23397c0,-1.11698 0,-1.11698 0,-2.23397c0,-1.11698 -1.11698,-1.11698 -1.11698,-2.23397c-0.55849,0 -1.67547,0 -2.79245,0z"/><path d="M384.52584,95.32316c0,2.23397 0,3.35094 0,4.46794c-1.11698,1.11698 -1.11698,2.23397 -3.35094,2.23397c-1.11698,0 -1.11698,0 -2.23397,0c-1.11698,0 -1.11698,0 -1.11698,0c0,0 -0.55849,-0.55849 -0.55849,-1.67547l-1.11698,-1.11698c0,-1.11698 0,-1.11698 0,-2.23397l-1.11698,-6.1434l2.23397,-1.11698l1.11698,7.26038v1.11698c0,0 0,0 0,1.11698v0c0,0 0,0 1.11698,0c0,0 0,0 1.11698,0c1.11698,0 1.11698,-1.11698 1.11698,-1.11698c0,0 0,-1.11698 0,-2.23397v-7.26038l2.23397,-1.11698z"/><path d="M395.13717,95.88165c-1.11698,-1.11698 -2.23397,-2.23397 -3.35094,-3.35094c-1.11698,-1.11698 -2.23397,-2.23397 -3.35094,-3.35094l1.11698,8.37737l-2.23397,1.11698l-2.23397,-11.72831l2.23397,-1.11698l1.11698,1.11698l1.11698,1.11698c0,0 1.11698,1.11698 2.23397,1.11698c1.11698,0 1.11698,1.11698 1.11698,1.11698l-1.11698,-7.26038l2.23397,-1.11698l2.23397,11.72831z"/><path d="M407.98248,83.59485c0,1.11698 1.11698,2.23397 1.11698,3.35094c0,1.11698 0,2.23397 -1.11698,3.35094c0,1.11698 -1.11698,2.23397 -2.23397,2.23397c-1.11698,1.11698 -2.23397,1.11698 -3.35094,2.23397c0,0 -1.11698,0 -1.11698,1.11698c-1.11698,0 -1.11698,0 -2.23397,0l-2.23397,-11.72831c1.11698,0 1.11698,-1.11698 2.23397,-1.11698c1.11698,0 1.11698,0 1.11698,-1.11698c1.11698,0 1.11698,0 2.23397,0c1.11698,0 1.11698,0 2.23397,0c1.11698,0 1.11698,1.11698 1.11698,1.11698c1.11698,-0.55849 1.11698,-0.55849 2.23397,0.55849zM401.83908,90.85524v0c0,0 0.55849,0 0,0c1.11698,-1.11698 2.23397,-1.11698 2.23397,-1.11698l1.11698,-1.11698c0,-1.11698 0,-1.11698 0,-2.23397c0,-1.11698 0,-1.11698 0,-2.23397c0,0 0,-1.11698 -1.11698,-1.11698c0,0 0,0 -1.11698,-1.11698h-1.11698h-1.11698h-1.11698z"/><path d="M411.33343,89.73824l-2.23397,-11.72831l7.26038,-3.35094v2.23397l-4.46794,2.23397v2.23397l4.46794,-2.23397v2.23397l-4.46794,2.23397v3.35094l5.02643,-2.23397v2.23397z"/><path d="M421.38628,72.98351c1.11698,0 1.11698,0 2.23397,0c1.11698,0 1.11698,0 1.11698,0c0,0 1.11698,0 1.11698,1.11698l1.11698,1.11698v1.11698v1.11698c0,0 0,1.11698 -1.11698,1.11698l-1.11698,0.55849c0,0 1.11698,1.11698 2.23397,2.23397c1.11698,1.11698 1.11698,1.11698 2.23397,2.23397l-2.23397,1.11698c-1.11698,-1.11698 -1.11698,-1.11698 -2.23397,-2.23397c-1.11698,-1.11698 -1.11698,-1.11698 -1.11698,-1.11698h-1.11698l1.11698,4.46794l-2.23397,1.11698l-2.23397,-11.72831l1.11698,-1.11698c0,-1.11698 0,-1.11698 1.11698,-1.11698zM422.50325,75.21747c-1.11698,0 -1.11698,0 0,0c-1.11698,0 -1.11698,0 0,0l-1.11698,3.35094h1.11698c0,0 1.11698,0 1.11698,-1.11698c0,0 1.11698,0 1.11698,-1.11698c0,0 0,0 0,-1.11698c0,0 0,0 0,-1.11698v0v0c-1.11698,0 -1.11698,0 -2.23397,1.11698c0,-1.11698 0,0 0,0z"/></g></g></g></svg>